<?xml version="1.0" encoding="UTF-8" standalone="no"?>
<!-- Created with Inkscape (http://www.inkscape.org/) -->

<svg
   width="260mm"
   height="140mm"
   viewBox="0 0 260 139.99997"
   version="1.1"
   id="svg5"
   xml:space="preserve"
   inkscape:version="1.2.2 (b0a8486541, 2022-12-01)"
   sodipodi:docname="无何有之树.svg"
   inkscape:export-filename="无何有之树-export.svg"
   inkscape:export-xdpi="96"
   inkscape:export-ydpi="96"
   xmlns:inkscape="http://www.inkscape.org/namespaces/inkscape"
   xmlns:sodipodi="http://sodipodi.sourceforge.net/DTD/sodipodi-0.dtd"
   xmlns="http://www.w3.org/2000/svg"
   xmlns:svg="http://www.w3.org/2000/svg"><sodipodi:namedview
     id="namedview7"
     pagecolor="#ffffff"
     bordercolor="#000000"
     borderopacity="0.25"
     inkscape:showpageshadow="2"
     inkscape:pageopacity="0.0"
     inkscape:pagecheckerboard="false"
     inkscape:deskcolor="#d1d1d1"
     inkscape:document-units="mm"
     showgrid="false"
     showguides="true"
     inkscape:zoom="0.94363241"
     inkscape:cx="385.21356"
     inkscape:cy="285.5985"
     inkscape:window-width="1854"
     inkscape:window-height="1001"
     inkscape:window-x="0"
     inkscape:window-y="0"
     inkscape:window-maximized="1"
     inkscape:current-layer="layer1"
     showborder="true" /><defs
     id="defs2" /><g
     inkscape:label="图层 1"
     inkscape:groupmode="layer"
     id="layer1"
     transform="translate(10.8655,-155.53848)"><path
       style="fill:#412533;fill-opacity:1;stroke-width:0.264583"
       d="m 113.43267,285.04994 c -1.95767,-0.12186 -2.26351,-0.2418 -1.85911,-0.72908 0.4463,-0.53777 0.0661,-1.00669 -0.66708,-0.8227 -0.33901,0.0851 -0.69024,0.0352 -0.7805,-0.11083 -0.30119,-0.48734 -0.93585,-0.274 -1.82243,0.61259 l -0.87815,0.87815 -11.307368,0.0116 c -13.0679,0.0134 -12.3187,0.16521 -12.3187,-2.49669 0,-0.7825 -0.12526,-1.65676 -0.27837,-1.94286 -0.1531,-0.28607 -0.37727,-1.40203 -0.49815,-2.47991 -0.18996,-1.69389 -0.34962,-2.11823 -1.17683,-3.12772 -0.52639,-0.64238 -0.95706,-1.27691 -0.95706,-1.41004 0,-0.87424 -1.38612,-2.21697 -2.28862,-2.21697 -0.52064,0 -1.41053,-0.26072 -1.97752,-0.57939 -0.79693,-0.44791 -1.10235,-0.50795 -1.34571,-0.26458 -0.17315,0.17314 -0.74344,0.3148 -1.26732,0.3148 -0.52387,0 -1.09978,0.14729 -1.2798,0.32731 -0.18002,0.18 -0.70985,0.35817 -1.1774,0.39587 -1.21925,0.0984 -7.56049,0.33547 -12.45368,0.46562 -2.30739,0.0614 -4.59352,0.24304 -5.08027,0.4037 -0.61044,0.20145 -1.04182,0.20815 -1.39041,0.0217 -0.28537,-0.15272 -2.85402,-0.2961 -5.89994,-0.32933 -2.967,-0.0324 -5.59733,-0.15727 -5.84517,-0.2776 -0.85176,-0.41352 -7.4039,-0.45432 -8.37907,-0.0522 -1.32385,0.54592 -2.74977,0.43847 -5.98696,-0.45114 -4.19639,-1.15321 -4.47062,-1.17943 -5.5674,-0.53234 -1.35904,0.80187 -3.872699,0.77192 -5.446499,-0.0649 -0.64396,-0.34239 -1.75856,-0.71067 -2.4769,-0.81841 -2.05891,-0.30874 -3.2384003,-0.8827 -3.5294103,-1.71749 -0.73672,-2.11335 -4.09189,-4.25402 -5.00186,-3.19124 -0.8309,0.97041 -2.71647,-0.74721 -2.71647,-2.47454 0,-0.35663 -0.3468,-1.46134 -0.77066,-2.45492 -0.86773997,-2.03408 -0.78281997,-2.5194 0.52033,-2.97368 1.11648,-0.38921 0.75822,-0.81071 -0.54093997,-0.63645 -1.81666,0.24366 -2.26223003,-0.46065 -1.13724,-1.79762 0.57255,-0.68044 0.70698,-1.09028 0.66605,-2.03066 -0.0555,-1.27594 0.27365,-2.1188 1.03985997,-2.66255 0.28865,-0.20485 0.48718,-0.67018 0.48718,-1.14188 0,-0.43788 0.12926,-1.03767 0.28725,-1.33288 0.23166,-0.43285 0.18045,-0.65042 -0.26458,-1.12413 -0.65235,-0.69439 -0.73539,-2.19386 -0.16338,-2.95013 0.50668,-0.66988 0.50511,-1.29199 -0.004,-1.71479 -1.56045997,-1.29507 0.26818,-3.94168 2.34051,-3.38742 1.59205,0.42581 2.00438,0.11445 1.39892,-1.05638 -0.57769,-1.11713 -0.52709,-2.05476 0.13595,-2.51917 1.15831,-0.81132 1.86354,-2.23659 1.92318,-3.88673 0.0422,-1.1683 0.17995,-1.65834 0.5401,-1.92168 0.48133,-0.35196 1.04589,-1.62316 1.47724,-3.32627 0.12463,-0.49208 0.6562703,-1.51854 1.1814203,-2.28104 0.91181,-1.3239 0.94262,-1.44073 0.68419,-2.59392 -0.77552,-3.46051 0.59751,-5.80559 3.01981,-5.15773 1.72028,0.46011 2.33521,-0.10648 1.5991,-1.47336 -0.65562,-1.21741 -0.12285,-2.1475 1.37861,-2.40673 1.847729,-0.31901 2.135969,-0.85327 2.994879,-5.55105 0.51715,-2.82853 2.09738,-3.9056 3.62482,-2.47065 0.51887,0.48746 0.70041,0.53122 1.07538,0.25926 0.24813,-0.17995 0.83379,-0.50319 1.30149,-0.71831 0.97122,-0.44671 1.3986,-1.09929 1.3986,-2.13556 0,-0.39601 0.29766,-1.11027 0.66146,-1.58724 0.3638,-0.47697 0.6619,-1.14305 0.66245,-1.48018 0.002,-1.53478 2.07951,-3.9178 3.42195,-3.92607 0.86936,-0.005 2.0582,-0.47161 3.72081,-1.45925 0.50739,-0.30141 1.13437,-0.35388 2.69178,-0.22528 2.92561,0.24157 3.88407,-0.53353 4.28965,-3.46904 0.30572,-2.21272 2.45416,-2.72308 3.8983,-0.92604 0.92811,1.15491 1.22212,1.28138 1.47101,0.63279 0.10814,-0.28181 -0.11123,-0.64039 -0.64947,-1.06162 -2.44923,-1.91682 0.25676,-5.44814 2.95493,-3.85618 0.47382,0.27956 1.54025,0.59309 2.36984,0.69674 1.23612,0.15445 1.60905,0.32466 2.06626,0.94307 0.99829,1.35026 5.93278,0.82149 5.72844,-0.61385 -0.0739,-0.51942 -0.21931,-0.5702 -1.44763,-0.50563 -3.11241,0.16361 -3.32525,-3.83315 -0.24997,-4.69417 1.60014,-0.44801 4.46401,0.0242 5.42589,0.89473 1.21144,1.09634 2.52205,-0.17427 2.25515,-2.1863 -0.27746,-2.09155 0.69081,-3.10911 3.45126,-3.62697 1.21905,-0.2287 2.25706,0.74654 2.25706,2.12058 0,0.81673 0.0831,0.93806 0.64225,0.93806 0.70151,0 1.739,-1.10178 1.739,-1.84675 0,-1.27504 0.86561,-1.45887 4.73547,-1.00567 0.82784,0.0969 2.14162,-2.28209 2.14775,-3.88922 0.005,-1.23597 0.10639,-1.4183 1.22741,-2.20079 1.29138,-0.90141 2.54407,-0.78079 3.56713,0.34347 0.68716,0.75514 1.03259,0.92605 1.87164,0.92605 1.0908,0 2.27132,0.48761 2.84029,1.17317 0.99669,1.20095 3.38042,0.403 5.08542,-1.70234 2.16826,-2.67745 5.247808,-2.99341 5.247808,-0.53852 0,0.73977 2.787,3.978 3.42368,3.978 0.80031,0 0.82836,-1.09516 0.055,-2.14679 -0.67563,-0.91871 -0.75129,-1.18369 -0.5442,-1.90579 0.1323,-0.4613 0.24054,-0.87102 0.24054,-0.9105 0,-0.84638 3.34315,-1.38559 4.49792,-0.72546 0.37047,0.21178 1.38136,0.38224 2.29788,0.38749 2.9033,0.0166 3.96757,0.92588 3.28693,2.80816 -0.31718,0.87714 -0.29451,0.95638 0.48074,1.68058 0.44749,0.41802 0.81362,0.89086 0.81362,1.05075 0,0.46395 0.93512,0.33624 1.4142,-0.19313 0.58869,-0.6505 0.55206,-0.97533 -0.1745,-1.54746 -1.10197,-0.86776 -1.58009,-1.84726 -1.39175,-2.85121 0.55459,-2.95625 6.21425,-3.62816 6.91871,-0.82139 0.11203,0.4464 0.5588,0.80155 1.52455,1.21193 0.75135,0.31927 1.74509,0.86527 2.20832,1.21332 0.46323,0.34806 1.18961,0.63283 1.61416,0.63283 0.96695,0 2.42856,0.48131 3.02414,0.99586 0.82502,0.71277 4.65624,0.59589 5.68131,-0.17331 1.87603,-1.40774 5.82939,0.7785 4.81961,2.6653 -0.38865,0.7262 0.24097,1.36411 1.31622,1.33354 1.1629,-0.0331 1.83282,-0.48647 2.35109,-1.5912 0.6478,-1.38086 1.72723,-1.46647 3.43877,-0.27273 2.11083,1.47223 6.23329,0.97239 7.44552,-0.90276 0.90908,-1.4062 2.06152,-1.58932 3.81144,-0.60565 0.87938,0.49433 1.91831,0.80189 3.19115,0.9447 1.20001,0.13464 2.51353,0.50807 3.60705,1.02546 1.3488,0.63817 2.07652,0.81375 3.37344,0.81391 1.84138,2.4e-4 2.71198,0.53923 2.71198,1.679 0,1.09771 0.89143,1.5948 3.21859,1.79479 3.03029,0.26041 4.77169,1.33551 5.98786,3.69678 1.01654,1.97368 2.07948,2.68607 4.15501,2.78472 0.7276,0.0346 1.83777,0.14742 2.46703,0.25075 1.05554,0.17332 1.20288,0.12352 1.90331,-0.64336 1.51041,-1.65368 4.06638,-0.83134 4.40655,1.41774 0.23364,1.54469 1.47615,2.41774 2.07102,1.45521 0.31567,-0.51075 1.23941,-0.2565 2.064,0.56808 1.75145,1.75146 5.21205,3.15232 5.21205,2.10985 0,-0.40067 1.51953,-0.88272 2.1633,-0.68628 1.13964,0.34775 1.56352,0.92583 1.38329,1.88651 -0.14789,0.78832 -0.0254,1.0318 1.18695,2.35824 0.74353,0.81354 1.35187,1.58557 1.35187,1.71563 0,0.29263 1.46817,1.07494 1.65907,0.88403 0.81919,-0.81917 2.83385,0.30561 2.84765,1.58984 0.0125,1.16729 0.8028,2.00949 1.88569,2.00965 1.90878,2.6e-4 4.8063,4.65488 4.23272,6.79946 -0.52911,1.97829 -0.41575,2.39409 1.08268,3.97125 0.76399,0.80413 1.59743,1.68621 1.85209,1.96018 0.25466,0.27398 0.70722,0.49814 1.00569,0.49814 0.37725,0 0.66859,0.30244 0.95577,0.99219 0.50213,1.20597 0.74772,1.37981 1.95672,1.38501 1.67602,0.007 2.91462,1.6331 2.69931,3.54334 -0.15553,1.37985 0.99008,2.83463 2.69366,3.4206 1.67379,0.57573 1.83504,2.30273 0.47192,5.05448 -0.29985,0.60533 -0.31955,0.97237 -0.0923,1.71979 0.15891,0.52262 0.40796,1.43214 0.55344,2.02115 0.26432,1.07015 1.18954,2.15899 2.33614,2.74929 1.03845,0.53461 2.30588,6.44679 1.64625,7.67931 -0.15367,0.28712 -0.26258,1.34003 -0.24202,2.33981 0.0206,0.99978 -0.1198,2.25245 -0.31192,2.78371 -0.25239,0.69797 -0.27506,1.16856 -0.0817,1.69643 0.37687,1.02905 -0.27407,2.92073 -1.14094,3.3157 -1.87086,0.85242 -1.93414,4.42628 -0.0784,4.42628 1.44183,0 1.68194,0.47403 1.28142,2.52972 l -0.35772,1.8359 -1.45521,0.13229 c -2.2127,0.20116 -1.88989,2.17461 0.39688,2.42621 1.58469,0.17436 0.58878,2.65152 -1.32292,3.29054 -0.29104,0.0973 -0.81142,0.3973 -1.15639,0.66667 -0.35873,0.28014 -0.8684,0.43333 -1.19062,0.35785 -0.72832,-0.17058 -1.0426,0.0724 -1.47461,1.14019 -0.50955,1.25942 -1.01224,1.43426 -3.1638,1.10043 -1.37658,-0.21357 -1.99238,-0.20809 -2.42145,0.0214 -0.31647,0.16936 -1.39849,0.31308 -2.40449,0.31938 -1.006,0.006 -1.89241,0.11391 -1.96979,0.23911 -0.0774,0.12522 -0.4611,0.22841 -0.85269,0.22931 -0.3916,0 -1.05303,0.17947 -1.46984,0.39688 -1.07279,0.55948 -1.57399,0.49445 -2.25875,-0.29308 -0.49367,-0.56777 -0.7453,-0.65866 -1.43678,-0.51888 -0.46106,0.0932 -1.49313,0.27109 -2.2935,0.39534 -0.80036,0.12425 -2.04124,0.42894 -2.7575,0.67712 -0.97317,0.33716 -1.7166,0.40685 -2.94161,0.27565 -1.35256,-0.14484 -1.66712,-0.10311 -1.79826,0.23865 -0.20127,0.52451 -0.80589,0.533 -1.23388,0.0172 -0.38578,-0.46485 -1.35588,-0.52266 -1.77288,-0.10565 -0.21189,0.21188 -0.54798,0.19836 -1.23395,-0.0497 -0.8163,-0.29519 -1.00683,-0.28289 -1.4206,0.0915 -0.66917,0.6056 -5.02193,0.93038 -6.15865,0.45953 -0.61596,-0.25514 -0.8959,-0.26438 -1.12322,-0.0371 -0.16653,0.16653 -0.75351,0.30279 -1.3044,0.30279 -0.55089,0 -1.53341,0.14224 -2.18338,0.31607 -0.95069,0.25426 -1.31108,0.24685 -1.84321,-0.0379 -0.54049,-0.28925 -0.87791,-0.2934 -1.84495,-0.0228 -0.77807,0.21786 -1.81207,0.26824 -3.01843,0.14708 -2.31163,-0.23214 -6.00023,-0.40317 -8.33792,-0.3866 -0.98939,0.007 -2.59673,-0.16235 -3.57188,-0.37637 -3.26705,-0.717 -5.97997,-1.04154 -6.08453,-0.72787 -0.0529,0.15859 -0.62244,0.52117 -1.26572,0.80573 -0.64329,0.28456 -1.16961,0.64008 -1.16961,0.79005 0,0.14996 -0.35719,0.45738 -0.79375,0.68313 -0.46279,0.23931 -0.79375,0.62177 -0.79375,0.91723 0,0.27871 -0.11906,0.58033 -0.26458,0.67027 -0.14552,0.0899 -0.26459,0.51368 -0.26459,0.94165 0,0.42799 -0.10519,0.77814 -0.23375,0.77814 -0.12857,0 -0.31737,0.78073 -0.41956,1.73495 -0.15982,1.49233 -0.27289,1.76808 -0.80849,1.97173 -0.34248,0.1302 -0.75318,0.48056 -0.91267,0.77856 -0.15948,0.29803 -0.51399,0.54184 -0.78779,0.54184 -1.06154,0 -0.86459,1.21997 0.32036,1.98438 1.83096,1.18115 1.74746,1.19057 -10.56365,1.19171 -6.37866,0 -13.1358,0.0795 -15.01585,0.17539 -3.29796,0.16817 -3.41079,0.1565 -3.20538,-0.33182 0.53824,-1.27952 -0.33155,-2.46885 -0.97053,-1.32704 -0.20616,0.36838 -0.97953,0.42405 -5.89107,0.42405 -6.06541,0 -6.49078,0.0539 -6.49078,0.82206 0,0.27546 -0.0893,0.47884 -0.19844,0.45191 -0.10914,-0.0269 -0.85328,-0.0897 -1.65364,-0.13954 z m 18.19561,-0.91945 c -0.16353,-0.49059 -0.73311,-0.57198 -0.73311,-0.10472 0,0.2304 0.18851,0.41891 0.41892,0.41891 0.23041,0 0.37179,-0.14139 0.31419,-0.31419 z m 94.51688,-20.79956 c 0,-1.53413 -1.02028,-2.16984 -1.96547,-1.22465 -0.53899,0.53898 -0.52536,0.69646 0.13259,1.53292 0.87854,1.11688 1.83288,0.95636 1.83288,-0.30827 z m -11.24479,-1.905 c 0,-0.19402 -0.14883,-0.40238 -0.33073,-0.46302 -0.19674,-0.0656 -0.33073,0.122 -0.33073,0.46302 0,0.34102 0.13399,0.52861 0.33073,0.46302 0.1819,-0.0606 0.33073,-0.26899 0.33073,-0.46302 z m -190.420618,-0.3175 c 0.47122,-0.47121 0.39469,-1.78615 -0.11533,-1.98187 -0.7017,-0.26926 -1.2972,0.29659 -1.20095,1.14115 0.11899,1.04409 0.72552,1.43148 1.31628,0.84072 z m -7.355409,-0.49565 c 0,-0.67803 -0.87573,-0.60111 -1.00855,0.0886 -0.0611,0.3175 0.0813,0.45998 0.45998,0.45998 0.37864,0 0.54857,-0.16992 0.54857,-0.54857 z m 19.070879,-4.78212 c 0.57106,-1.06703 -0.43609,-3.13598 -1.52657,-3.13598 -0.11965,0 -0.36404,0.46934 -0.54307,1.04298 -0.58893,1.88702 1.20756,3.70381 2.06964,2.093 z m 188.546028,-1.45445 c 0.25481,-0.66404 -0.69692,-1.28159 -1.19992,-0.77859 -0.20842,0.20842 -0.30687,0.56677 -0.21878,0.79634 0.2108,0.54933 1.20586,0.53689 1.4187,-0.0178 z M 9.0129227,252.40092 c 0.72381,-0.32979 1.2933903,-1.35572 1.0724003,-1.9316 -0.2646103,-0.68957 -0.8501903,-0.66588 -1.3215103,0.0534 -0.25463,0.38862 -0.69928,0.89793 -0.98811,1.13181 -0.96791,0.78377 -0.0544,1.33484 1.23722,0.74634 z m 14.1490893,-0.96571 c 0.0635,-0.44529 -0.0477,-0.59261 -0.4474,-0.59261 -0.63329,0 -0.93387,0.40021 -0.71973,0.95826 0.22633,0.5898 1.06846,0.32596 1.16713,-0.36565 z m 191.473778,-0.85719 c 0,-0.3934 -0.17133,-0.68721 -0.42973,-0.73697 -0.49278,-0.0949 -0.81897,0.54237 -0.58701,1.14683 0.24746,0.64486 1.01674,0.33475 1.01674,-0.40986 z m -12.45432,-0.94494 c 0.48756,-0.48756 0.51399,-0.75841 0.14188,-1.45371 -0.44189,-0.82569 -1.54147,-0.66899 -2.32415,0.33121 -0.86959,1.11127 1.15309,2.15168 2.18227,1.1225 z m 28.10264,-0.51364 c 0.19797,-0.5159 -0.36017,-1.18726 -0.98704,-1.18726 -0.53459,0 -1.15466,0.91565 -0.89957,1.32839 0.25623,0.41459 1.71524,0.30545 1.88661,-0.14113 z M 23.320412,245.9195 c 0.69411,-0.26636 0.559,-1.74919 -0.14978,-1.64374 -0.69485,0.10338 -1.16178,0.78659 -0.93733,1.3715 0.17821,0.46439 0.42518,0.52624 1.08711,0.27224 z m 192.902878,-2.48523 c 0,-0.19403 -0.14883,-0.40239 -0.33073,-0.46302 -0.19674,-0.0656 -0.33073,0.122 -0.33073,0.46302 0,0.34101 0.13399,0.5286 0.33073,0.46302 0.1819,-0.0606 0.33073,-0.269 0.33073,-0.46302 z M 33.481762,241.22953 c 0.057,-0.29407 -0.0921,-0.4411 -0.44741,-0.4411 -0.67623,0 -1.01122,0.51579 -0.53193,0.81903 0.48838,0.30901 0.87505,0.15979 0.97934,-0.37793 z m 199.511608,-1.55571 c 0.35704,-0.96517 0.0606,-1.53122 -0.80196,-1.53122 -0.91179,0 -1.21227,0.55636 -0.79504,1.47208 0.37311,0.81887 1.30321,0.85331 1.597,0.0591 z m -216.927367,-4.2969 c 0,-1.0189 -0.55606,-1.99682 -1.13542,-1.99682 -0.45517,0 -0.50051,0.12588 -0.35731,0.99219 0.0902,0.5457 0.1653,1.14101 0.16691,1.32291 0.002,0.1819 0.30056,0.33073 0.66437,0.33073 0.52578,0 0.66145,-0.13312 0.66145,-0.64901 z m 192.484367,-1.0744 c 0,-0.34357 -0.20613,-0.55482 -0.59531,-0.61009 -0.59035,-0.0838 -0.86337,0.65433 -0.40978,1.10793 0.35098,0.35098 1.00509,0.027 1.00509,-0.49784 z m 14.79777,-0.0153 c 0.87043,-0.87044 -0.56135,-2.49465 -2.19909,-2.49465 -0.97046,0 -0.95159,1.33175 0.0365,2.57969 0.36694,0.46341 1.66515,0.41236 2.16256,-0.085 z m 4.86053,-3.87234 c 0.0953,-0.49125 -0.51743,-0.77583 -1.01215,-0.47007 -0.29703,0.18357 -0.29743,0.29036 -0.002,0.64579 0.41084,0.49503 0.90091,0.41015 1.0146,-0.17572 z M 46.009232,229.76719 c 0.57491,-0.52027 0.63495,-1.37282 0.11086,-1.57394 -0.48474,-0.18601 -2.00825,0.6027 -2.00825,1.03966 0,0.92377 1.11888,1.23883 1.89739,0.53428 z m -23.9901,-0.49179 c 0,-0.74032 -0.77495,-0.65828 -0.88138,0.0933 -0.068,0.47991 0.0211,0.5979 0.39687,0.52555 0.27569,-0.0531 0.48451,-0.31982 0.48451,-0.61886 z m 166.501588,-1.60793 c 0.0977,-0.68004 -0.8051,-1.85034 -1.22646,-1.58992 -0.40597,0.2509 -0.39418,1.55369 0.0178,1.96566 0.4666,0.4666 1.11671,0.2645 1.20867,-0.37574 z m 10.30943,-2.32474 c 0.28661,-0.62905 0.0229,-1.22308 -0.54289,-1.22308 -0.39234,0 -1.19452,1.1499 -1.05529,1.51272 0.22422,0.58431 1.2878,0.39157 1.59818,-0.28964 z m -181.441227,-0.8262 c 0,-0.76235 -0.89216,-0.94697 -1.16318,-0.24071 -0.21672,0.56478 0.0262,0.90217 0.64963,0.90217 0.3714,0 0.51355,-0.1831 0.51355,-0.66146 z m 16.384959,-2.15235 c 1.12845,-1.43458 0.46589,-2.75364 -1.12022,-2.23018 -1.05691,0.34882 -1.64332,1.28745 -1.40287,2.24548 0.24616,0.98078 1.74674,0.97168 2.52309,-0.0153 z m 182.944268,-0.15547 c 0.35528,-0.56418 -0.1209,-1.14883 -0.74166,-0.91062 -0.57902,0.22219 -0.56051,1.56615 0.02,1.4519 0.23907,-0.047 0.56381,-0.29063 0.72166,-0.54128 z M 49.900422,222.02852 c 0.47296,-0.29957 0.14783,-0.81928 -0.51253,-0.81928 -0.49718,0 -0.69684,0.52227 -0.33716,0.88194 0.23065,0.23066 0.40714,0.21765 0.84969,-0.0627 z m 159.527418,-2.04937 c -0.17568,-1.47085 -1.32002,-1.48902 -1.68118,-0.0267 -0.17149,0.69435 -0.13526,0.7276 0.7926,0.7276 0.8964,0 0.96576,-0.0547 0.88858,-0.70092 z m -28.24344,-2.36397 c 0.52755,-0.63565 -0.023,-1.30074 -1.07674,-1.30074 -0.94843,0 -1.51101,0.58341 -1.24103,1.28696 0.21832,0.56895 1.84898,0.57865 2.31777,0.0138 z m 34.02562,-2.91027 c 0.25546,-0.6657 -0.83156,-1.61379 -1.35355,-1.18056 -0.42265,0.35076 -0.54798,1.11002 -0.23492,1.42308 0.33916,0.33916 1.42912,0.17275 1.58847,-0.24252 z M 24.797252,214.09382 c 0,-0.57797 -0.55157,-0.87067 -1.05473,-0.55969 -0.49159,0.30381 -0.1225,1.06055 0.51727,1.06055 0.35095,0 0.53746,-0.17381 0.53746,-0.50086 z m 51.85834,-0.27083 c 0,-0.30378 -0.61443,-0.81581 -0.97896,-0.81581 -0.33864,0 -0.48439,0.82971 -0.19635,1.11775 0.18966,0.18966 1.17531,-0.0636 1.17531,-0.30194 z m 113.881468,-0.18266 c 0.57298,-0.21987 0.52482,-0.71952 -0.12614,-1.30862 -0.60565,-0.54811 -1.36774,-0.295 -1.5255,0.50665 -0.0725,0.36814 0.17213,0.56277 1.18862,0.9458 0.0245,0.009 0.23284,-0.0555 0.46302,-0.14383 z M 31.187712,211.56885 c 0.56256,-1.23469 -0.42351,-2.19035 -1.37323,-1.33087 -0.50705,0.45888 -0.69534,1.44665 -0.34292,1.79906 0.42584,0.42584 1.43413,0.15076 1.71615,-0.46819 z m 9.49852,-0.0169 c -0.0207,-0.39271 -0.61268,-0.32056 -0.75,0.0914 -0.0742,0.22254 0.0468,0.32173 0.32265,0.26458 0.24273,-0.0503 0.43504,-0.21047 0.42735,-0.356 z m 159.022238,-0.13229 c 0.3848,0 0.28319,-0.57532 -0.19494,-1.10364 -0.58046,-0.64141 -1.06293,-0.61104 -1.43839,0.0905 -0.34606,0.64662 0.34204,1.41542 1.03042,1.15126 0.19798,-0.076 0.46929,-0.13813 0.60291,-0.13813 z m -101.490098,-0.5268 c 0.22572,-0.71115 -0.0356,-1.0607 -0.79299,-1.0607 -0.75739,0 -1.01872,0.34955 -0.793,1.0607 0.10486,0.3304 0.40051,0.5268 0.793,0.5268 0.39248,0 0.68813,-0.1964 0.79299,-0.5268 z m -41.83648,-1.53635 c 0.2331,-0.37717 -0.28192,-0.90183 -0.78934,-0.80411 -0.79734,0.15355 -0.80273,1.01518 -0.006,1.01518 0.36588,0 0.72394,-0.095 0.79569,-0.21107 z m 33.5245,-0.84726 c 0.41028,0 0.269,-1.2365 -0.18426,-1.61267 -0.36624,-0.30395 -0.49838,-0.26664 -0.92604,0.2615 -0.78401,0.96821 -0.49733,1.78233 0.51499,1.4625 0.1938,-0.0612 0.46169,-0.11133 0.59531,-0.11133 z m -23.06798,-0.50652 c 0.72523,-0.45921 0.10875,-1.11954 -0.96247,-1.03094 -1.4035,0.11609 -1.66396,1.27518 -0.28511,1.26882 0.48306,-0.002 1.04447,-0.10927 1.24758,-0.23788 z m 14.17601,-0.80326 c 0.52653,-1.01821 0.51,-1.5263 -0.0594,-1.82465 -1.00291,-0.52554 -2.18281,0.51577 -2.18281,1.92641 0,1.0669 1.67719,0.99078 2.24217,-0.10176 z m 48.454218,-0.12476 c 0.32565,-0.84864 -1.00926,-2.17057 -1.8616,-1.8435 -0.63422,0.24338 -0.497,1.05928 0.2811,1.67133 0.8136,0.63998 1.37741,0.7014 1.5805,0.17217 z m 86.2134,10e-4 c 1.18987,-0.49717 1.92636,-1.58563 1.4562,-2.15214 -0.19089,-0.23 -0.52155,-0.33382 -0.7589,-0.23828 -0.23135,0.0931 -0.98675,0.21092 -1.67868,0.26179 -1.51376,0.11129 -1.78466,0.25533 -1.78466,0.94891 0,1.47948 1.01377,1.91186 2.76604,1.17972 z m -31.73792,-0.41525 c 0,-0.47102 -0.87272,-0.69195 -1.24859,-0.31608 -0.14649,0.14649 -0.18214,0.40259 -0.0792,0.56911 0.26301,0.42556 1.32781,0.22264 1.32781,-0.25303 z m -73.69576,-0.25082 c 0.4641,-0.86719 0.31964,-1.59539 -0.37973,-1.91405 -0.80572,-0.3671 -1.34114,-0.004 -1.54258,1.04484 -0.24812,1.29245 1.31704,2.00017 1.92231,0.86921 z m -61.263528,-0.10103 c 0.26192,-0.19151 0.43187,-0.57847 0.37768,-0.85989 -0.13873,-0.72034 -2.15491,-0.74954 -2.29286,-0.0332 -0.2244,1.16518 0.85482,1.66845 1.91518,0.89309 z m -14.67311,-0.56512 c 0.48437,-0.58364 0.0871,-1.46791 -0.65944,-1.46791 -0.80212,0 -1.36461,0.91651 -0.90349,1.47212 0.40557,0.48869 1.15553,0.48667 1.56293,-0.004 z m 107.828238,-1.83006 c 0,-0.32742 -0.30425,-0.59555 -0.90067,-0.79375 -0.81879,-0.2721 -1.03487,-0.50657 -1.61681,-1.75451 -0.38018,-0.81527 -1.84815,-0.48587 -1.84815,0.41472 0,0.82873 2.47263,2.7667 3.43959,2.69585 0.70376,-0.0516 0.92604,-0.18654 0.92604,-0.56231 z m 23.94479,-0.0347 c 0,-0.21828 -0.17157,-0.39688 -0.38126,-0.39688 -0.44203,0 -0.74041,0.37764 -0.49349,0.62456 0.31622,0.31622 0.87475,0.17084 0.87475,-0.22768 z m 13.61128,0.15617 c 0.28209,-0.45642 -0.17571,-1.08221 -0.79168,-1.08221 -0.76834,0 -1.061,0.42933 -0.63915,0.93763 0.35674,0.42984 1.20176,0.51523 1.43083,0.14458 z m 27.9376,-0.69655 c 0.24451,-0.29462 0.25847,-0.48831 0.0502,-0.69659 -0.41701,-0.41701 -1.11782,-0.0614 -1.11782,0.56721 0,0.63553 0.58839,0.70683 1.06763,0.12938 z m -12.37475,-0.80841 c 0.25748,-0.25747 -0.096,-0.90017 -0.49515,-0.90017 -0.20271,0 -0.36857,0.15875 -0.36857,0.35278 0,0.586 0.50503,0.90608 0.86372,0.54739 z M 48.633942,199.99707 c 0.25473,-0.47597 0.225,-0.63461 -0.17355,-0.92604 -0.83332,-0.60934 -1.53092,-0.10218 -1.26391,0.91886 0.19634,0.75082 1.03723,0.75502 1.43746,0.007 z m 21.5386,-0.4816 c 0.29576,-0.93185 -0.41586,-1.34111 -1.56511,-0.9001 -0.42172,0.16183 -0.56918,0.92345 -0.24212,1.25051 0.40764,0.40764 1.64264,0.16819 1.80723,-0.35041 z m 119.989288,-0.2449 c 0,-0.85139 -0.41483,-1.13572 -1.12448,-0.77074 -0.82898,0.42636 -0.35993,1.54244 0.64823,1.54244 0.34975,0 0.47625,-0.20497 0.47625,-0.7717 z m -151.407808,-0.0955 c 0.4753,-0.36777 0.41364,-1.69019 -0.0878,-1.8826 -1.83872,-0.70558 -3.44082,1.26911 -1.72405,2.12501 0.63049,0.31433 1.18886,0.23963 1.81183,-0.24241 z m 95.580728,-0.0432 c 0,-0.20969 -0.11084,-0.44976 -0.2463,-0.53348 -0.31456,-0.19441 -0.63093,0.30104 -0.41516,0.65016 0.2433,0.39367 0.66146,0.3199 0.66146,-0.11668 z m -45.412208,-0.48561 c 0.49676,-0.36324 0.35219,-1.24979 -0.2038,-1.24979 -0.46563,0 -0.95066,0.56696 -0.95066,1.11125 0,0.55699 0.50011,0.61701 1.15446,0.13854 z m -30.93724,-0.43708 c 0.97653,-1.07905 -0.40577,-2.30577 -1.85443,-1.64571 -0.69916,0.31855 -0.87094,1.29192 -0.32445,1.83841 0.48334,0.48334 1.66136,0.37916 2.17888,-0.1927 z M 200.34829,196.4668 c 0,-0.66641 -0.10357,-0.79013 -0.66146,-0.79013 -0.75288,0 -1.10833,1.0902 -0.48617,1.49111 0.65658,0.42308 1.14763,0.12315 1.14763,-0.70098 z m -35.73351,0.15979 c 0.3063,-0.4956 -0.18765,-1.08221 -0.91128,-1.08221 -0.80356,0 -1.19233,0.55392 -0.72016,1.02609 0.3566,0.3566 1.42306,0.39329 1.63144,0.0561 z m -99.116998,-0.90526 c 0.0715,-0.3751 -0.0467,-0.46472 -0.52377,-0.39687 -0.34229,0.0487 -0.65721,0.30298 -0.70853,0.57214 -0.0715,0.3751 0.0467,0.46472 0.52376,0.39687 0.34229,-0.0487 0.65721,-0.30297 0.70854,-0.57214 z m 27.14796,-0.14922 c 0.0805,-0.13027 -0.0199,-0.30067 -0.2231,-0.37865 -0.38796,-0.14887 -0.68581,0.0227 -0.68581,0.39502 0,0.29548 0.72424,0.28243 0.90891,-0.0164 z m 80.722728,-0.56932 c 0.24772,-0.40081 -0.82009,-2.53319 -1.37518,-2.7462 -0.5353,-0.20541 -1.14604,0.45206 -1.14604,1.23372 0,1.08692 2.03116,2.30541 2.52122,1.51248 z m -23.48394,-0.46713 c 0.0576,-0.17281 -0.0838,-0.31419 -0.31419,-0.31419 -0.23041,0 -0.41892,0.18851 -0.41892,0.41892 0,0.46723 0.56958,0.38586 0.73311,-0.10473 z m 33.66272,-0.83988 c 0.52677,-0.33581 0.0401,-1.16042 -0.75463,-1.27865 -0.44712,-0.0665 -0.56829,0.051 -0.56829,0.55121 0,0.98294 0.49508,1.25517 1.32292,0.72744 z M 78.259352,192.08883 c 0.68248,-0.68248 0.56823,-1.41148 -0.23922,-1.52635 -1.02644,-0.14601 -2.09717,1.25097 -1.45274,1.8954 0.34493,0.34493 1.15459,0.16832 1.69196,-0.36905 z m 52.681128,0.10755 c 0.62165,-0.56258 0.60909,-0.74774 -0.0952,-1.40389 -0.93149,-0.86782 -2.59595,-0.65758 -2.59595,0.3279 0,1.30613 1.69014,1.9819 2.69115,1.07599 z m -31.795308,-0.0913 c 0,-0.14552 -0.11906,-0.26458 -0.26459,-0.26458 -0.14552,0 -0.26458,0.11906 -0.26458,0.26458 0,0.14552 0.11906,0.26458 0.26458,0.26458 0.14553,0 0.26459,-0.11906 0.26459,-0.26458 z m 45.887668,-2.68599 c 0.77666,-0.35386 1.11424,-1.15519 0.69797,-1.65676 -0.48037,-0.57883 -2.65268,-0.75314 -3.38728,-0.27182 -1.72098,1.12763 0.67543,2.84617 2.68931,1.92858 z m -31.60017,-0.22443 c 0,-0.14552 -0.11907,-0.26458 -0.26459,-0.26458 -0.14552,0 -0.26458,0.11906 -0.26458,0.26458 0,0.14552 0.11906,0.26459 0.26458,0.26459 0.14552,0 0.26459,-0.11907 0.26459,-0.26459 z m -42.121668,-0.3175 c 0.78937,-0.78936 0.007,-1.97777 -1.11663,-1.6958 -0.86097,0.21609 -1.17373,1.19324 -0.5321,1.66241 0.59647,0.43615 1.23308,0.44905 1.64873,0.0334 z m 67.257078,-0.60854 c 0.26278,-0.31663 0.26278,-0.47712 0,-0.79375 -0.66118,-0.79667 -1.60363,-0.18712 -1.22723,0.79375 0.0838,0.21828 0.32004,0.39688 0.52507,0.39688 0.20503,0 0.521,-0.1786 0.70216,-0.39688 z m 16.68615,-2.25826 c 0.66101,-0.35377 0.65329,-1.17209 -0.0174,-1.84278 -0.6548,-0.6548 -1.09459,-0.66658 -1.85638,-0.0497 -1.25285,1.01449 0.3983,2.68214 1.87378,1.8925 z m 25.07027,-1.77934 c 0.0635,-0.44529 -0.0477,-0.59261 -0.4474,-0.59261 -0.63328,0 -0.93387,0.40021 -0.71972,0.95827 0.22632,0.58979 1.06845,0.32596 1.16712,-0.36566 z m -98.002168,-0.41166 c 0.62216,-0.45494 0.4406,-1.34875 -0.29536,-1.45399 -0.70337,-0.10058 -1.7144,0.84222 -1.50062,1.39933 0.18999,0.4951 1.15355,0.52442 1.79598,0.0547 z m 86.481738,-0.44855 c 0.7226,-0.84394 -0.70185,-2.62696 -1.68031,-2.10331 -0.80487,0.43076 -0.677,1.73416 0.21776,2.21958 0.93746,0.50858 0.92681,0.50943 1.46255,-0.11627 z m -58.73972,-0.85686 c 0.18767,-0.53799 -0.093,-0.99218 -0.61312,-0.99218 -0.58332,0 -0.88242,0.41257 -0.68052,0.93871 0.18047,0.4703 1.13449,0.50973 1.29364,0.0535 z m 19.37561,-0.58894 c 0,-0.65865 -1.30084,-1.19261 -1.76782,-0.72563 -0.23679,0.23679 -0.19311,0.43892 0.1852,0.85695 0.61343,0.67783 1.58262,0.59741 1.58262,-0.13132 z m 22.48958,-0.80012 c 0,-0.88521 -0.88544,-1.24411 -1.60206,-0.64937 -0.49138,0.4078 -0.4818,0.64438 0.0475,1.17372 0.70152,0.70153 1.55452,0.41381 1.55452,-0.52435 z m 9.3446,-1.72786 c 1.01403,-0.61823 1.02064,-1.15904 0.0233,-1.90293 -0.93191,-0.69507 -2.44882,-0.13395 -2.7365,1.01226 -0.34573,1.37749 1.1236,1.85983 2.71322,0.89067 z m -73.553798,-0.45495 c 0.0948,-0.66754 -0.66079,-0.83928 -1.22226,-0.27781 -0.57312,0.57312 -0.37018,1.04662 0.41011,0.95684 0.52097,-0.0599 0.75161,-0.25278 0.81215,-0.67903 z m 10.14722,0.0251 c 0.7225,-0.65385 0.59164,-1.34487 -0.34657,-1.83004 -1.62936,-0.84257 -2.96771,0.82239 -1.49195,1.85605 0.75286,0.52733 1.23463,0.52051 1.83852,-0.026 z"
       id="path1070"
       inkscape:label="无何有之树" /></g></svg>
